<?xml version="1.0" encoding="UTF-8"?>
<!-- Created with Inkscape (http://www.inkscape.org/) -->
<svg width="128.54mm" height="128.54mm" version="1.1" viewBox="0 0 128.54 128.54" xmlns="http://www.w3.org/2000/svg" xmlns:cc="http://creativecommons.org/ns#" xmlns:dc="http://purl.org/dc/elements/1.1/" xmlns:rdf="http://www.w3.org/1999/02/22-rdf-syntax-ns#">
 <metadata>
  <rdf:RDF>
   <cc:Work rdf:about="">
    <dc:format>image/svg+xml</dc:format>
    <dc:type rdf:resource="http://purl.org/dc/dcmitype/StillImage"/>
    <dc:title/>
   </cc:Work>
  </rdf:RDF>
 </metadata>
 <g transform="translate(-49.289 -65.003)" stroke="#000">
  <g>
   <path d="m174.62 129.27a61.058 61.058 0 0 1-61.058 61.058 61.058 61.058 0 0 1-61.058-61.058 61.058 61.058 0 0 1 61.058-61.058 61.058 61.058 0 0 1 61.058 61.058z" fill="none" stroke-width=".388"/>
   <circle cx="174.62" cy="129.27" r="3.0456" fill="#0ff" stroke-width=".32965"/>
   <circle cx="171.61" cy="148.14" r="3.0456" fill="#f00" stroke-width=".32965"/>
  </g>
  <g fill="#0ff" stroke-width=".32965">
   <circle cx="162.94" cy="165.16" r="3.0456"/>
   <circle cx="149.44" cy="178.66" r="3.0456"/>
   <circle cx="132.42" cy="187.33" r="3.0456"/>
   <circle cx="113.55" cy="190.33" r="3.0456"/>
   <circle cx="94.684" cy="187.34" r="3.0456"/>
   <circle cx="77.672" cy="178.66" r="3.0456"/>
   <circle cx="64.166" cy="165.15" r="3.0456"/>
  </g>
  <g fill="#f00" stroke-width=".32965">
   <circle cx="55.485" cy="148.14" r="3.0456"/>
   <circle cx="52.499" cy="129.27" r="3.0456"/>
   <circle cx="55.485" cy="110.4" r="3.0456"/>
   <circle cx="64.166" cy="93.391" r="3.0456"/>
   <circle cx="77.672" cy="79.884" r="3.0456"/>
   <circle cx="94.684" cy="71.201" r="3.0456"/>
  </g>
  <circle cx="113.55" cy="68.214" r="3.0456" fill="#f0f" stroke-width=".32965"/>
  <g fill="#f00" stroke-width=".32965">
   <circle cx="132.42" cy="71.217" r="3.0456"/>
   <circle cx="149.44" cy="79.881" r="3.0456"/>
   <circle cx="162.94" cy="93.387" r="3.0456"/>
   <circle cx="171.61" cy="110.41" r="3.0456"/>
   <circle cx="174.62" cy="129.27" r="3.0456"/>
  </g>
  <g fill="none" stroke-width=".26458px">
   <path d="m79.659 82.353 33.481-10.995"/>
   <path d="m95.477 74.267-28.657 20.713"/>
   <path d="m66.82 94.98-11.279 33.41"/>
   <path d="m55.541 128.39 10.498 34.332"/>
   <path d="m66.04 162.72 28.87 21.351 36.176 0.35468 29.154-21.138 11.208-33.765"/>
   <path d="m171.45 129.52-10.853-34.119"/>
   <path d="m160.59 95.405-28.445-21.138"/>
   <path d="m132.15 74.267h-36.673"/>
   <path d="m79.659 82.353-21.351 29.225v35.325l20.642 28.87 34.261 11.279"/>
   <path d="m113.21 187.05 34.048-10.782 21.28-28.799 0.28374-35.68-21.138-29.367-34.545-11.066"/>
  </g>
 </g>
</svg>
